<svg xmlns="http://www.w3.org/2000/svg" viewBox="0 0 128 128" role="img" aria-label="Project Midnight icon">
  <defs>
    <linearGradient id="midnight" x1="0%" y1="0%" x2="100%" y2="100%">
      <stop offset="0%" stop-color="#0d1b38" />
      <stop offset="100%" stop-color="#050816" />
    </linearGradient>
    <linearGradient id="moon" x1="0%" y1="0%" x2="100%" y2="100%">
      <stop offset="0%" stop-color="#f7d774" />
      <stop offset="100%" stop-color="#d9a441" />
    </linearGradient>
  </defs>
  <rect width="128" height="128" rx="28" fill="url(#midnight)" />
  <circle cx="42" cy="34" r="3" fill="#dbeafe" opacity="0.95" />
  <circle cx="92" cy="30" r="2.5" fill="#93c5fd" opacity="0.95" />
  <circle cx="82" cy="50" r="2" fill="#e5e7eb" opacity="0.8" />
  <path d="M80 24c-18.7 0-34 15.3-34 34s15.3 34 34 34c9.7 0 18.4-4.1 24.6-10.7-4.2 1.9-8.9 2.9-13.8 2.9-18.7 0-34-15.3-34-34 0-8.9 3.5-17.1 9.1-23.1A33.84 33.84 0 0 1 80 24Z" fill="url(#moon)" />
  <path d="M29 96h70" stroke="#60a5fa" stroke-width="6" stroke-linecap="round" opacity="0.7" />
  <path d="M43 108h42" stroke="#e5e7eb" stroke-width="6" stroke-linecap="round" opacity="0.4" />
</svg>