<svg xmlns="http://www.w3.org/2000/svg" viewBox="0 0 512 512" role="img" aria-label="Project Midnight icon">
  <rect width="512" height="512" rx="72" fill="#ffffff" />

  <path
    d="M85 256 162 180"
    fill="none"
    stroke="#000000"
    stroke-linecap="round"
    stroke-linejoin="round"
    stroke-width="28"
  />
  <path
    d="M85 256 162 332"
    fill="none"
    stroke="#000000"
    stroke-linecap="round"
    stroke-linejoin="round"
    stroke-width="28"
  />
  <path
    d="M427 256 350 180"
    fill="none"
    stroke="#000000"
    stroke-linecap="round"
    stroke-linejoin="round"
    stroke-width="28"
  />
  <path
    d="M427 256 350 332"
    fill="none"
    stroke="#000000"
    stroke-linecap="round"
    stroke-linejoin="round"
    stroke-width="28"
  />

  <path
    d="M306 98c-27 4-54 17-76 38-46 43-63 108-45 166 18 57 68 101 128 111 57 10 115-12 152-57-26 14-59 19-90 12-48-9-90-41-111-86-21-45-18-101 8-145 10-17 22-30 34-39Z"
    fill="#000000"
  />

  <path
    d="M365 119c24 36 33 84 23 130-8 38-30 73-63 97"
    fill="none"
    stroke="#000000"
    stroke-linecap="round"
    stroke-width="14"
  />

  <path
    d="m340 116 10 30h32l-26 18 10 30-26-19-26 19 10-30-26-18h32z"
    fill="#000000"
  />

  <rect x="248" y="149" width="12" height="24" rx="6" fill="#000000" />
  <path d="M254 176v88" fill="none" stroke="#000000" stroke-linecap="round" stroke-width="14" />
  <path d="M254 176 235 256" fill="none" stroke="#000000" stroke-linecap="round" stroke-width="14" />
  <circle cx="254" cy="256" r="13" fill="#000000" />

  <rect x="321" y="251" width="24" height="10" rx="5" fill="#000000" />
</svg>